<?xml version="1.0" standalone="no"?>
<!DOCTYPE svg PUBLIC "-//W3C//DTD SVG 20010904//EN"
 "http://www.w3.org/TR/2001/REC-SVG-20010904/DTD/svg10.dtd">
<svg version="1.0" xmlns="http://www.w3.org/2000/svg"
 width="48.000000pt" height="48.000000pt" viewBox="0 0 48.000000 48.000000"
 preserveAspectRatio="xMidYMid meet">

<g transform="translate(0.000000,48.000000) scale(0.100000,-0.100000)"
fill="#000000" stroke="none">
<path d="M150 394 c-103 -45 -139 -147 -85 -240 44 -76 137 -103 221 -65 47
21 77 59 92 115 l11 39 -50 -56 c-28 -32 -55 -55 -60 -51 -15 9 -10 18 21 36
38 21 70 74 70 114 0 58 -90 125 -165 124 -11 -1 -36 -8 -55 -16z m100 -124
c24 -24 24 -29 4 -58 -17 -24 -62 -30 -82 -10 -29 29 -2 88 39 88 10 0 28 -9
39 -20z"/>
<path d="M423 110 c0 -25 2 -35 4 -22 2 12 2 32 0 45 -2 12 -4 2 -4 -23z"/>
<path d="M157 13 c46 -2 120 -2 166 0 45 1 8 3 -83 3 -91 0 -128 -2 -83 -3z"/>
</g>
</svg>
